<svg xmlns="http://www.w3.org/2000/svg" xmlns:xlink="http://www.w3.org/1999/xlink" width="183" zoomAndPan="magnify" viewBox="0 0 137.25 32.999998" height="44" preserveAspectRatio="xMidYMid meet" version="1.0"><defs><g/><clipPath id="727273bdbe"><path d="M 5.074219 1.117188 L 31.925781 1.117188 L 31.925781 19 L 5.074219 19 Z M 5.074219 1.117188 " clip-rule="nonzero"/></clipPath><clipPath id="ed88d582c0"><path d="M 5.074219 16 L 31.925781 16 L 31.925781 31.699219 L 5.074219 31.699219 Z M 5.074219 16 " clip-rule="nonzero"/></clipPath><clipPath id="a06aeb6bec"><path d="M 34 8 L 111 8 L 111 32.910156 L 34 32.910156 Z M 34 8 " clip-rule="nonzero"/></clipPath><clipPath id="ddbe400cdc"><path d="M 65 7 L 76.753906 7 L 76.753906 18 L 65 18 Z M 65 7 " clip-rule="nonzero"/></clipPath><clipPath id="63c2a150db"><rect x="0" width="77" y="0" height="25"/></clipPath></defs><path fill="#d35400" d="M 13.121094 2.132812 L 8.59375 2.132812 L 8.59375 6.277344 L 13.121094 3.175781 Z M 13.121094 2.132812 " fill-opacity="1" fill-rule="nonzero"/><g clip-path="url(#727273bdbe)"><path fill="#d35400" d="M 18.554688 1.117188 L 5.167969 10.320312 L 5.105469 18.285156 L 18.554688 8.953125 L 31.949219 18.21875 L 31.949219 10.242188 Z M 18.554688 1.117188 " fill-opacity="1" fill-rule="nonzero"/></g><g clip-path="url(#ed88d582c0)"><path fill="#d35400" d="M 24.269531 25.167969 L 17.242188 25.167969 C 14.320312 25.167969 11.953125 22.816406 11.953125 19.90625 L 11.953125 17.28125 L 5.132812 21.964844 C 5.503906 27.5 10.148438 31.875 15.824219 31.875 L 31.949219 31.875 L 31.949219 21.992188 L 24.214844 16.753906 C 24.175781 16.726562 24.269531 25.167969 24.269531 25.167969 Z M 24.269531 25.167969 " fill-opacity="1" fill-rule="nonzero"/></g><path fill="#d35400" d="M 16.121094 14.207031 L 18.117188 14.207031 L 18.117188 16.199219 L 16.121094 16.199219 Z M 16.121094 14.207031 " fill-opacity="1" fill-rule="nonzero"/><path fill="#d35400" d="M 18.953125 14.207031 L 20.949219 14.207031 L 20.949219 16.199219 L 18.953125 16.199219 Z M 18.953125 14.207031 " fill-opacity="1" fill-rule="nonzero"/><path fill="#d35400" d="M 16.121094 16.894531 L 18.117188 16.894531 L 18.117188 18.890625 L 16.121094 18.890625 Z M 16.121094 16.894531 " fill-opacity="1" fill-rule="nonzero"/><path fill="#d35400" d="M 18.953125 16.894531 L 20.949219 16.894531 L 20.949219 18.890625 L 18.953125 18.890625 Z M 18.953125 16.894531 " fill-opacity="1" fill-rule="nonzero"/><g clip-path="url(#a06aeb6bec)"><g transform="matrix(1, 0, 0, 1, 34, 8)"><g clip-path="url(#63c2a150db)"><g fill="#ffffff" fill-opacity="1"><g transform="translate(1.733491, 17.507164)"><g><path d="M 9.09375 -15.671875 L 15.421875 0 L 11.59375 0 L 10.4375 -3.140625 L 4.46875 -3.140625 L 3.3125 0 L -0.53125 0 L 5.796875 -15.671875 Z M 9.21875 -6.265625 L 7.46875 -10.828125 L 7.421875 -10.828125 L 5.6875 -6.265625 Z M 9.21875 -6.265625 "/></g></g></g><g fill="#ffffff" fill-opacity="1"><g transform="translate(15.00804, 17.507164)"><g><path d="M 1.453125 -15.171875 C 1.847656 -15.566406 2.316406 -15.765625 2.859375 -15.765625 C 3.410156 -15.765625 3.878906 -15.566406 4.265625 -15.171875 C 4.660156 -14.785156 4.859375 -14.316406 4.859375 -13.765625 C 4.859375 -13.222656 4.660156 -12.753906 4.265625 -12.359375 C 3.878906 -11.972656 3.410156 -11.78125 2.859375 -11.78125 C 2.316406 -11.78125 1.847656 -11.972656 1.453125 -12.359375 C 1.066406 -12.753906 0.875 -13.222656 0.875 -13.765625 C 0.875 -14.316406 1.066406 -14.785156 1.453125 -15.171875 Z M 1.140625 -9.75 L 1.140625 0 L 4.5 0 L 4.5 -9.75 Z M 1.140625 -9.75 "/></g></g></g><g fill="#ffffff" fill-opacity="1"><g transform="translate(19.1289, 17.507164)"><g><path d="M 1.140625 0 L 1.140625 -9.75 L 4.5 -9.75 L 4.5 -8.71875 L 4.546875 -8.71875 C 5.421875 -9.59375 6.347656 -10.03125 7.328125 -10.03125 C 7.816406 -10.03125 8.296875 -9.96875 8.765625 -9.84375 C 9.242188 -9.71875 9.703125 -9.519531 10.140625 -9.25 C 10.578125 -8.988281 10.929688 -8.613281 11.203125 -8.125 C 11.472656 -7.632812 11.609375 -7.066406 11.609375 -6.421875 L 11.609375 0 L 8.25 0 L 8.25 -5.515625 C 8.25 -6.015625 8.085938 -6.453125 7.765625 -6.828125 C 7.441406 -7.210938 7.019531 -7.40625 6.5 -7.40625 C 5.988281 -7.40625 5.523438 -7.207031 5.109375 -6.8125 C 4.703125 -6.425781 4.5 -5.992188 4.5 -5.515625 L 4.5 0 Z M 1.140625 0 "/></g></g></g><g fill="#ffffff" fill-opacity="1"><g transform="translate(30.06755, 17.507164)"><g><path d="M 11 -4.40625 L 3.9375 -4.40625 C 3.9375 -3.71875 4.15625 -3.207031 4.59375 -2.875 C 5.039062 -2.550781 5.523438 -2.390625 6.046875 -2.390625 C 6.585938 -2.390625 7.015625 -2.460938 7.328125 -2.609375 C 7.648438 -2.753906 8.015625 -3.046875 8.421875 -3.484375 L 10.84375 -2.265625 C 9.832031 -0.566406 8.148438 0.28125 5.796875 0.28125 C 4.328125 0.28125 3.066406 -0.21875 2.015625 -1.21875 C 0.960938 -2.226562 0.4375 -3.441406 0.4375 -4.859375 C 0.4375 -6.273438 0.960938 -7.488281 2.015625 -8.5 C 3.066406 -9.519531 4.328125 -10.03125 5.796875 -10.03125 C 7.335938 -10.03125 8.59375 -9.582031 9.5625 -8.6875 C 10.53125 -7.800781 11.015625 -6.523438 11.015625 -4.859375 C 11.015625 -4.628906 11.007812 -4.476562 11 -4.40625 Z M 4.03125 -6.265625 L 7.734375 -6.265625 C 7.660156 -6.773438 7.460938 -7.164062 7.140625 -7.4375 C 6.816406 -7.707031 6.398438 -7.84375 5.890625 -7.84375 C 5.328125 -7.84375 4.878906 -7.695312 4.546875 -7.40625 C 4.222656 -7.113281 4.050781 -6.734375 4.03125 -6.265625 Z M 4.03125 -6.265625 "/></g></g></g><g fill="#ffffff" fill-opacity="1"><g transform="translate(39.904719, 17.507164)"><g><path d="M 3.609375 -9.75 L 5.984375 -4.453125 L 8.359375 -9.75 L 12.34375 -9.75 L 7.125 0 L 4.84375 0 L -0.375 -9.75 Z M 3.609375 -9.75 "/></g></g></g><g fill="#ffffff" fill-opacity="1"><g transform="translate(50.254647, 17.507164)"><g><path d="M 2.0625 -1.15625 C 0.976562 -2.125 0.4375 -3.359375 0.4375 -4.859375 C 0.4375 -6.367188 1 -7.609375 2.125 -8.578125 C 3.25 -9.546875 4.644531 -10.03125 6.3125 -10.03125 C 7.945312 -10.03125 9.320312 -9.539062 10.4375 -8.5625 C 11.5625 -7.59375 12.125 -6.359375 12.125 -4.859375 C 12.125 -3.367188 11.570312 -2.140625 10.46875 -1.171875 C 9.375 -0.203125 7.988281 0.28125 6.3125 0.28125 C 4.5625 0.28125 3.144531 -0.195312 2.0625 -1.15625 Z M 4.65625 -6.515625 C 4.226562 -6.085938 4.015625 -5.535156 4.015625 -4.859375 C 4.015625 -4.191406 4.222656 -3.644531 4.640625 -3.21875 C 5.054688 -2.789062 5.601562 -2.578125 6.28125 -2.578125 C 6.945312 -2.578125 7.488281 -2.789062 7.90625 -3.21875 C 8.332031 -3.65625 8.546875 -4.203125 8.546875 -4.859375 C 8.546875 -5.535156 8.328125 -6.085938 7.890625 -6.515625 C 7.453125 -6.941406 6.914062 -7.15625 6.28125 -7.15625 C 5.632812 -7.15625 5.09375 -6.941406 4.65625 -6.515625 Z M 4.65625 -6.515625 "/></g></g></g><g fill="#ffffff" fill-opacity="1"><g transform="translate(61.193297, 17.507164)"><g><path d="M 1.453125 -15.171875 C 1.847656 -15.566406 2.316406 -15.765625 2.859375 -15.765625 C 3.410156 -15.765625 3.878906 -15.566406 4.265625 -15.171875 C 4.660156 -14.785156 4.859375 -14.316406 4.859375 -13.765625 C 4.859375 -13.222656 4.660156 -12.753906 4.265625 -12.359375 C 3.878906 -11.972656 3.410156 -11.78125 2.859375 -11.78125 C 2.316406 -11.78125 1.847656 -11.972656 1.453125 -12.359375 C 1.066406 -12.753906 0.875 -13.222656 0.875 -13.765625 C 0.875 -14.316406 1.066406 -14.785156 1.453125 -15.171875 Z M 1.140625 -9.75 L 1.140625 0 L 4.5 0 L 4.5 -9.75 Z M 1.140625 -9.75 "/></g></g></g><g clip-path="url(#ddbe400cdc)"><g fill="#ffffff" fill-opacity="1"><g transform="translate(65.314156, 17.507164)"><g><path d="M 11 -4.40625 L 3.9375 -4.40625 C 3.9375 -3.71875 4.15625 -3.207031 4.59375 -2.875 C 5.039062 -2.550781 5.523438 -2.390625 6.046875 -2.390625 C 6.585938 -2.390625 7.015625 -2.460938 7.328125 -2.609375 C 7.648438 -2.753906 8.015625 -3.046875 8.421875 -3.484375 L 10.84375 -2.265625 C 9.832031 -0.566406 8.148438 0.28125 5.796875 0.28125 C 4.328125 0.28125 3.066406 -0.21875 2.015625 -1.21875 C 0.960938 -2.226562 0.4375 -3.441406 0.4375 -4.859375 C 0.4375 -6.273438 0.960938 -7.488281 2.015625 -8.5 C 3.066406 -9.519531 4.328125 -10.03125 5.796875 -10.03125 C 7.335938 -10.03125 8.59375 -9.582031 9.5625 -8.6875 C 10.53125 -7.800781 11.015625 -6.523438 11.015625 -4.859375 C 11.015625 -4.628906 11.007812 -4.476562 11 -4.40625 Z M 4.03125 -6.265625 L 7.734375 -6.265625 C 7.660156 -6.773438 7.460938 -7.164062 7.140625 -7.4375 C 6.816406 -7.707031 6.398438 -7.84375 5.890625 -7.84375 C 5.328125 -7.84375 4.878906 -7.695312 4.546875 -7.40625 C 4.222656 -7.113281 4.050781 -6.734375 4.03125 -6.265625 Z M 4.03125 -6.265625 "/></g></g></g></g></g></g></g></svg>